<?xml version="1.0" encoding="utf-8"?>
<!-- Generator: Adobe Illustrator 26.3.1, SVG Export Plug-In . SVG Version: 6.00 Build 0)  -->
<svg version="1.1" id="Layer_1" xmlns="http://www.w3.org/2000/svg" xmlns:xlink="http://www.w3.org/1999/xlink" x="0px" y="0px"
	 width="138px" height="27px" viewBox="0 0 138 27" style="enable-background:new 0 0 138 27;" xml:space="preserve">
<style type="text/css">
	.st0{fill:#EE326D;}
	.st1{fill:#FFFFFF;}
</style>
<path class="st0" d="M22.5,20.2L22.5,20.2c-1.7-0.2-3.1-1.7-3.2-3.4c0-1.3,0.2-2.5,0.7-3.7c0.7-1.6,0.9-3.3,0.6-5.1
	c-0.5-3.6-3.3-6.7-6.8-7.6c-0.6-0.1-1.1-0.2-1.7-0.3c0,0-0.1,0-0.1,0h-1.3c-0.1,0-0.1,0-0.2,0C7.9,0.3,5.7,1.5,4.1,3.6
	c-2.2,2.8-2.6,6-1.3,9.3c0.5,1.2,0.7,2.4,0.7,3.7c0,1.7-1.2,3.2-2.9,3.5c-0.1,0-0.2,0-0.3,0c-0.2,0-0.4,0.2-0.4,0.5v2
	c0,0.3,0.2,0.5,0.5,0.5C0.8,23,1,23,1.3,22.9c2.8-0.5,4.9-3,5.1-5.9c0.1-1.8-0.2-3.5-0.9-5.2C5,10.7,4.9,9.5,5.1,8.3
	c0.5-3.5,4-6,7.4-5.3c4.2,0.8,6.5,5,4.9,9c-0.6,1.5-0.9,3-0.9,4.7c0,3.1,2.1,5.7,5.1,6.4c0.3,0.1,0.6,0.1,0.9,0.1
	c0.3,0,0.5-0.2,0.5-0.5v-2C23,20.4,22.8,20.2,22.5,20.2L22.5,20.2z"/>
<path class="st0" d="M16.8,23.9c-1.1-1.2-2-2.6-2.4-4.2c-0.3-1.4-1.5-2.4-2.9-2.4c-1.4,0-2.6,0.9-3,2.3c-0.3,1.1-0.7,2-1.4,2.9
	C6.8,23,6.4,23.5,6,24c-0.2,0.2,0,0.5,0.2,0.5c0.5,0,0.4,0,0.2,0c1.2,0,1.6,0,2.7,0c0.1,0,0.2-0.1,0.3-0.2c0.8-1.1,1.4-2.4,1.8-3.7
	c0-0.1,0-0.2,0.1-0.3c0-0.1,0.1-0.1,0.2-0.1c0.1,0,0.1,0.1,0.2,0.1c0,0.1,0,0.2,0.1,0.2c0.4,1.4,0.9,2.6,1.7,3.8
	c0.1,0.1,0.2,0.2,0.4,0.2c0.9,0,1.7,0,2.6,0h0.1C16.9,24.5,17,24.1,16.8,23.9L16.8,23.9L16.8,23.9z"/>
<path class="st0" d="M15.4,11.9c0-0.8-0.6-1.4-1.4-1.4s-1.4,0.7-1.4,1.4c0,0.8,0.7,1.4,1.4,1.4C14.8,13.3,15.4,12.7,15.4,11.9z"/>
<path class="st0" d="M10.4,11.9c0-0.8-0.6-1.4-1.4-1.4c-0.8,0-1.4,0.6-1.4,1.4c0,0.8,0.6,1.4,1.4,1.4C9.8,13.3,10.4,12.7,10.4,11.9
	L10.4,11.9z"/>
<path class="st1" d="M137.4,8.3c-0.4-1-0.9-1.9-1.6-2.6c-0.7-0.7-1.5-1.3-2.5-1.7c-1-0.4-2.1-0.6-3.4-0.6c-0.1,0-0.1,0-0.2,0
	c-0.1,0-0.1,0-0.2,0c-1.3,0-2.4,0.2-3.4,0.6c-1,0.4-1.8,0.9-2.5,1.7c-0.7,0.7-1.2,1.6-1.6,2.6c-0.4,1-0.6,2.2-0.6,3.5
	c0,1.3,0.2,2.4,0.6,3.5c0.4,1,0.9,1.9,1.6,2.6c0.7,0.7,1.5,1.3,2.5,1.7c1,0.4,2.1,0.6,3.4,0.6c0.1,0,0.1,0,0.2,0c0.1,0,0.1,0,0.2,0
	c1.3,0,2.4-0.2,3.4-0.6c1-0.4,1.8-0.9,2.5-1.7c0.7-0.7,1.2-1.6,1.6-2.6c0.4-1,0.6-2.2,0.6-3.5C138,10.5,137.8,9.3,137.4,8.3z
	 M129.7,16.4c-2.9,0-4.4-1.5-4.4-4.6c0-1.1,0.2-2.1,0.6-2.8c0.7-1.2,1.9-1.8,3.8-1.8c2.9,0,4.4,1.5,4.4,4.6c0,1.1-0.2,2.1-0.6,2.8
	C132.8,15.8,131.6,16.4,129.7,16.4z"/>
<path class="st1" d="M32,11.8c0-1.3,0.2-2.4,0.6-3.5c0.4-1,0.9-1.9,1.6-2.6s1.5-1.3,2.5-1.7c1-0.4,2.1-0.6,3.4-0.6
	c1.6,0,3,0.3,4.2,0.9C44.6,4.5,45,4.3,45,4v0c0-0.2,0.3-0.4,0.5-0.4h2.3c0.3,0,0.5,0.2,0.5,0.5v15.4c0,0.3-0.2,0.5-0.5,0.5h-2.3
	c-0.3,0-0.5-0.2-0.5-0.4c-0.1-0.3-0.4-0.5-0.7-0.4c-1.2,0.6-2.6,0.9-4.2,0.9c-1.3,0-2.4-0.2-3.4-0.6c-1-0.4-1.8-0.9-2.5-1.7
	c-0.7-0.7-1.2-1.6-1.6-2.6C32.2,14.2,32,13.1,32,11.8L32,11.8z M40.3,16.4c2.9,0,4.4-1.5,4.4-4.6c0-3.1-1.5-4.6-4.4-4.6
	s-4.4,1.5-4.4,4.6C35.9,14.9,37.3,16.4,40.3,16.4z"/>
<path class="st1" d="M52.7,3.6h2.3c0.2,0,0.5,0.2,0.5,0.4l0,0c0.1,0.3,0.4,0.5,0.7,0.4c1.2-0.6,2.6-0.9,4.2-0.9
	c1.3,0,2.4,0.2,3.4,0.6c1,0.4,1.8,0.9,2.5,1.7c0.7,0.7,1.2,1.6,1.6,2.6c0.4,1,0.6,2.2,0.6,3.5c0,1.3-0.2,2.4-0.6,3.5
	s-0.9,1.9-1.6,2.6c-0.7,0.7-1.5,1.3-2.5,1.7c-1,0.4-2.1,0.6-3.4,0.6c-1.4,0-2.6-0.4-3.7-1C56.4,19,56,19.3,56,19.6v6
	c0,0.3-0.2,0.5-0.5,0.5h-2.8c-0.3,0-0.5-0.2-0.5-0.5V4.1C52.1,3.8,52.4,3.6,52.7,3.6L52.7,3.6z M55.8,11.8c0,3.1,1.5,4.6,4.4,4.6
	s4.4-1.5,4.4-4.6c0-3.1-1.5-4.6-4.4-4.6C57.3,7.2,55.8,8.7,55.8,11.8z"/>
<path class="st1" d="M72.8,3.6h2.7c0.3,0,0.5,0.2,0.5,0.5v8.5c0,0.6,0.1,1.2,0.1,1.7c0.1,0.5,0.3,0.9,0.5,1.2c0.3,0.3,0.6,0.6,1,0.7
	c0.4,0.2,1,0.2,1.7,0.2c1.1,0,2-0.3,2.8-0.8c0.3-0.2,0.5-0.4,0.7-0.6c0.2-0.2,0.3-0.5,0.4-0.7c0.1-0.3,0.2-0.5,0.2-0.8
	c0-0.3,0.1-0.5,0.1-0.7V4.1c0-0.3,0.2-0.5,0.5-0.5h2.7c0.3,0,0.5,0.2,0.5,0.5v15.3c0,0.3-0.2,0.5-0.5,0.5h-2.2
	c-0.2,0-0.5-0.2-0.5-0.4l0-0.1c-0.1-0.3-0.4-0.5-0.7-0.4c-0.4,0.2-0.9,0.4-1.4,0.6c-0.8,0.3-1.7,0.4-2.8,0.4c-4.6,0-6.8-2.3-6.8-7
	v-9C72.3,3.8,72.5,3.6,72.8,3.6L72.8,3.6z"/>
<path class="st1" d="M91.2,19.5V4.1c0-0.3,0.2-0.5,0.5-0.5H94c0.2,0,0.5,0.2,0.5,0.4l0,0.1c0.1,0.3,0.4,0.5,0.7,0.4
	c0.4-0.2,0.9-0.4,1.4-0.6c0.8-0.3,1.7-0.4,2.8-0.4c2.2,0,3.9,0.6,5.1,1.8c1.2,1.2,1.8,2.9,1.8,5.2v9c0,0.3-0.2,0.5-0.5,0.5H103
	c-0.3,0-0.5-0.2-0.5-0.5V11c0-0.6-0.1-1.2-0.1-1.7c-0.1-0.5-0.3-0.9-0.5-1.2c-0.2-0.3-0.6-0.6-1-0.7c-0.4-0.2-1-0.2-1.7-0.2
	c-1.1,0-2,0.3-2.8,0.8c-0.6,0.4-0.9,0.8-1.1,1.4c-0.1,0.5-0.2,1-0.3,1.5v8.6c0,0.3-0.2,0.5-0.5,0.5h-2.7
	C91.5,20,91.2,19.7,91.2,19.5z"/>
<path class="st1" d="M117,16.4h-1.3c-0.9,0-1.7-0.6-1.7-1.7v-7c0-0.3,0.2-0.5,0.5-0.5h2.5c0.3,0,0.5-0.2,0.5-0.5V4
	c0-0.3-0.2-0.5-0.5-0.5h-2.5c-0.3,0-0.5-0.2-0.5-0.5V0.5c0-0.3-0.2-0.5-0.5-0.5h-2.7c-0.3,0-0.5,0.2-0.5,0.5v14
	c0,2.3,0.5,3.8,1.5,4.5c1,0.7,2,1,3.5,1h1.8c0.3,0,0.5-0.2,0.5-0.5v-2.6C117.5,16.6,117.2,16.4,117,16.4L117,16.4z"/>
</svg>
