<svg width="138" height="27" viewBox="0 0 138 27" fill="none" xmlns="http://www.w3.org/2000/svg">
<path d="M22.5416 20.1556H22.5371C20.8338 19.9882 19.4252 18.4224 19.3847 16.7073C19.3532 15.4041 19.5827 14.1664 20.0913 12.9672C20.7821 11.3404 20.9621 9.64338 20.7033 7.89435C20.1655 4.27187 17.4024 1.18562 13.8652 0.291881C13.3027 0.149334 12.7559 0.110869 12.1821 0.00678792C12.1551 0.00226264 12.1304 0 12.1034 0H10.76C10.7015 0 10.6475 0.00905056 10.598 0.0158385C7.94515 0.298669 5.74229 1.4594 4.12671 3.58629C1.9621 6.43495 1.56158 9.58455 2.84414 12.9265C3.30092 14.1211 3.58668 15.3339 3.57093 16.6146C3.54843 18.3297 2.34912 19.7823 0.668284 20.1126C0.578279 20.1307 0.488275 20.1443 0.39827 20.1579C0.168759 20.1895 0 20.3864 0 20.6194V22.5812C0 22.8595 0.238512 23.0744 0.513026 23.0427C0.780789 23.0133 1.04405 22.9816 1.30282 22.9319C4.06596 22.4024 6.25082 19.8931 6.42182 17.0739C6.52983 15.2819 6.21256 13.5645 5.53078 11.9128C5.04926 10.7408 4.90975 9.53703 5.09651 8.28353C5.61853 4.81264 9.08371 2.31242 12.5241 2.93465C16.7071 3.69037 19.045 7.95318 17.4181 11.897C16.7993 13.3971 16.4911 14.9402 16.5068 16.5648C16.5383 19.6397 18.5949 22.2463 21.5808 22.916C21.8666 22.9794 22.1569 23.0133 22.4494 23.0427C22.7216 23.0721 22.9602 22.8549 22.9602 22.5812V20.6217C22.9602 20.3819 22.7802 20.1828 22.5439 20.1579L22.5416 20.1556Z" fill="#EE326D"/>
<path d="M16.8193 23.8775C15.7528 22.6353 14.8437 21.3026 14.4454 19.678C14.0989 18.2661 12.9109 17.3204 11.5023 17.3068C10.0982 17.2932 8.88767 18.2164 8.5254 19.6283C8.25313 20.6894 7.80536 21.6646 7.16408 22.5448C6.79956 23.0448 6.39454 23.5336 5.99402 24.0246C5.83426 24.2214 5.97377 24.5178 6.22803 24.5178C6.70055 24.5178 6.5948 24.5178 6.41254 24.5178C7.57135 24.5178 8.00112 24.5246 9.15993 24.511C9.25893 24.511 9.38719 24.416 9.45019 24.3278C10.276 23.1964 10.8745 21.952 11.2413 20.5967C11.2683 20.5016 11.2885 20.3998 11.3358 20.3138C11.365 20.2618 11.4438 20.2052 11.4978 20.2075C11.554 20.2075 11.6238 20.2686 11.6576 20.3206C11.6981 20.3885 11.7071 20.4745 11.7273 20.5537C12.0851 21.9113 12.6724 23.1602 13.4756 24.3097C13.5792 24.459 13.6872 24.5223 13.8717 24.5201C14.7402 24.511 15.611 24.5178 16.4795 24.5201H16.5336C16.8576 24.5201 17.0331 24.1377 16.8193 23.8888L16.8148 23.882L16.8193 23.8775Z" fill="#EE326D"/>
<path d="M15.4221 11.8931C15.4221 11.0853 14.7853 10.4473 13.9775 10.4473C13.1697 10.4473 12.5532 11.1057 12.5554 11.8954C12.5577 12.685 13.2057 13.3276 13.9932 13.3276C14.783 13.3276 15.4221 12.6873 15.4221 11.8931Z" fill="#EE326D"/>
<path d="M10.3866 11.8773C10.3843 11.0763 9.75653 10.4495 8.95099 10.4473C8.16795 10.445 7.53117 11.0944 7.53567 11.8954C7.53792 12.6918 8.17695 13.3299 8.97124 13.3276C9.76328 13.3254 10.3911 12.6805 10.3866 11.8795V11.8773Z" fill="#EE326D"/>
<path d="M137.438 8.31808C137.057 7.29298 136.517 6.41776 135.819 5.6951C135.119 4.97244 134.27 4.4184 133.27 4.03566C132.269 3.65292 131.14 3.46289 129.881 3.46289C129.825 3.46289 129.775 3.46557 129.721 3.46824C129.663 3.46824 129.607 3.46289 129.546 3.46289C128.287 3.46289 127.158 3.65292 126.157 4.03566C125.159 4.4184 124.308 4.96977 123.608 5.6951C122.908 6.41776 122.367 7.29298 121.989 8.31808C121.609 9.34319 121.42 10.4994 121.42 11.7842C121.42 13.0689 121.609 14.2251 121.989 15.2502C122.37 16.2754 122.91 17.1506 123.608 17.8732C124.308 18.5959 125.157 19.1499 126.157 19.5327C127.158 19.9154 128.287 20.1054 129.546 20.1054C129.602 20.1054 129.652 20.1028 129.706 20.1001C129.764 20.1001 129.82 20.1054 129.881 20.1054C131.14 20.1054 132.269 19.9154 133.27 19.5327C134.268 19.1499 135.119 18.5986 135.819 17.8732C136.519 17.1506 137.06 16.2754 137.438 15.2502C137.818 14.2251 138.007 13.0689 138.007 11.7842C138.007 10.4994 137.818 9.34319 137.438 8.31808ZM129.732 16.3664C126.794 16.3664 125.324 14.8381 125.324 11.7842C125.324 10.6386 125.529 9.70719 125.937 8.98721C126.621 7.79616 127.874 7.20198 129.695 7.20198C132.633 7.20198 134.103 8.73027 134.103 11.7842C134.103 12.9297 133.898 13.8611 133.49 14.5811C132.806 15.7722 131.553 16.3664 129.732 16.3664Z" fill="#252525"/>
<path d="M32 11.7842C32 10.4968 32.189 9.34319 32.5696 8.31808C32.9502 7.29298 33.4879 6.41776 34.1879 5.6951C34.8879 4.97244 35.737 4.4184 36.7378 4.03566C37.7359 3.65292 38.8672 3.46289 40.1261 3.46289C41.7072 3.46289 43.0939 3.76801 44.2837 4.37826C44.5925 4.53617 44.9624 4.34346 45.0237 4.00087V3.98481C45.0716 3.73589 45.2872 3.55389 45.54 3.55389H47.7918C48.0793 3.55389 48.3135 3.78942 48.3135 4.07849V19.4631C48.3135 19.7521 48.0793 19.9877 47.7918 19.9877H45.5374C45.2872 19.9877 45.0716 19.8083 45.0263 19.5594C44.9651 19.2195 44.5951 19.0268 44.289 19.182C43.07 19.8003 41.6832 20.1081 40.1261 20.1081C38.8672 20.1081 37.7386 19.9127 36.7378 19.5193C35.737 19.1285 34.8879 18.5745 34.1879 17.8598C33.4879 17.1479 32.9476 16.278 32.5696 15.2529C32.189 14.2278 32 13.0716 32 11.7868V11.7842ZM40.2752 16.3664C43.2137 16.3664 44.683 14.8381 44.683 11.7842C44.683 8.73027 43.2137 7.16986 40.2752 7.16986C37.3367 7.16986 35.8674 8.70885 35.8674 11.7842C35.8674 14.8595 37.3367 16.3664 40.2752 16.3664Z" fill="#252525"/>
<path d="M52.6601 3.58319H54.9226C55.1701 3.58319 55.383 3.75716 55.4336 4.00072L55.4442 4.0489C55.5135 4.38347 55.8808 4.57082 56.1842 4.41291C57.3633 3.79999 58.7554 3.49219 60.3577 3.49219C61.6167 3.49219 62.7453 3.68222 63.7461 4.06496C64.7442 4.4477 65.5959 4.99906 66.296 5.7244C66.996 6.44706 67.5363 7.32228 67.9143 8.34738C68.2949 9.37248 68.4839 10.5287 68.4839 11.8135C68.4839 13.0982 68.2949 14.2544 67.9143 15.2795C67.5337 16.3046 66.9933 17.1799 66.296 17.9025C65.5959 18.6252 64.7469 19.1792 63.7461 19.562C62.7453 19.9447 61.6167 20.1347 60.3577 20.1347C58.9896 20.1347 57.7679 19.7118 56.6979 19.1765C56.3519 19.0052 55.95 19.2595 55.95 19.6449V25.6082C55.95 25.8973 55.7157 26.1328 55.4283 26.1328H52.6601C52.3727 26.1328 52.1384 25.8973 52.1384 25.6082V4.10511C52.1384 3.81605 52.3727 3.58051 52.6601 3.58051V3.58319ZM55.7983 11.8135C55.7983 14.87 57.2675 16.3956 60.206 16.3956C63.1445 16.3956 64.5845 14.8674 64.5845 11.8135C64.5845 8.75956 63.1259 7.19916 60.206 7.19916C57.2861 7.19916 55.7983 8.73815 55.7983 11.8135Z" fill="#252525"/>
<path d="M72.8305 3.58471H75.5667C75.8542 3.58471 76.0884 3.82024 76.0884 4.1093V12.5698C76.0884 13.1934 76.139 13.7447 76.2375 14.2292C76.336 14.711 76.5116 15.1151 76.7618 15.4363C77.012 15.7575 77.3501 15.9984 77.7813 16.159C78.2098 16.3195 78.7661 16.3998 79.4448 16.3998C80.5042 16.3998 81.4438 16.1295 82.2636 15.5862C82.5643 15.3854 82.7986 15.1686 82.9689 14.9385C83.1393 14.7083 83.2697 14.4621 83.3575 14.1998C83.448 13.9375 83.5119 13.6832 83.5518 13.4316C83.5918 13.18 83.613 12.9338 83.613 12.6929V4.14142C83.613 3.85236 83.8473 3.61683 84.1347 3.61683H86.871C87.1584 3.61683 87.3926 3.85236 87.3926 4.14142V19.4671C87.3926 19.7562 87.1584 19.9917 86.871 19.9917H84.6298C84.3876 19.9917 84.1747 19.8231 84.1214 19.5822L84.0975 19.4752C84.023 19.1433 83.6583 18.9693 83.3549 19.1245C82.9503 19.3333 82.4871 19.526 81.9628 19.7027C81.1643 19.973 80.2247 20.1095 79.1441 20.1095C74.5872 20.1095 72.3088 17.789 72.3088 13.1452V4.10663C72.3088 3.81756 72.5431 3.58203 72.8305 3.58203V3.58471Z" fill="#252525"/>
<path d="M91.2227 19.4604V4.10525C91.2227 3.81619 91.4569 3.58066 91.7443 3.58066H93.9855C94.2277 3.58066 94.4406 3.74928 94.4939 3.99016L94.5178 4.09722C94.5924 4.42911 94.957 4.60308 95.2604 4.44785C95.665 4.23908 96.1282 4.04637 96.6525 3.86972C97.451 3.59939 98.3906 3.46289 99.4712 3.46289C101.649 3.46289 103.333 4.06511 104.523 5.27221C105.713 6.47932 106.306 8.19764 106.306 10.4272V19.4604C106.306 19.7495 106.072 19.985 105.785 19.985H103.049C102.761 19.985 102.527 19.7495 102.527 19.4604V10.9999C102.527 10.3576 102.476 9.79819 102.378 9.32713C102.277 8.85606 102.104 8.45726 101.853 8.13608C101.603 7.8149 101.263 7.57401 100.834 7.41342C100.403 7.25283 99.8492 7.17254 99.1705 7.17254C98.1111 7.17254 97.1715 7.44286 96.3517 7.98619C95.7715 8.36894 95.4068 8.8293 95.2578 9.37263C95.1087 9.91596 95.0236 10.4191 95.0023 10.8795V19.4604C95.0023 19.7495 94.768 19.985 94.4806 19.985H91.7443C91.4569 19.985 91.2227 19.7495 91.2227 19.4604Z" fill="#252525"/>
<path d="M116.953 16.3669H115.633C114.691 16.3508 113.898 15.7513 113.898 14.678V7.69765C113.898 7.40858 114.132 7.17305 114.419 7.17305H116.953C117.241 7.17305 117.475 6.93752 117.475 6.64845V3.96659C117.475 3.67753 117.241 3.44199 116.953 3.44199H114.419C114.132 3.44199 113.898 3.20646 113.898 2.9174V0.524596C113.898 0.235533 113.663 0 113.376 0H110.648C110.36 0 110.126 0.235533 110.126 0.524596V14.4826C110.126 16.7683 110.666 18.2752 111.672 19.0059C112.679 19.7527 113.698 19.9855 115.135 19.9855H116.951C117.238 19.9855 117.472 19.75 117.472 19.4609V16.8888C117.472 16.5997 117.238 16.3642 116.951 16.3642L116.953 16.3669Z" fill="#252525"/>
</svg>
